<svg data-v-0dd9719b="" version="1.0" xmlns="http://www.w3.org/2000/svg" xmlns:xlink="http://www.w3.org/1999/xlink" width="100%" height="100%" viewBox="0 0 340.000000 250.000000" preserveAspectRatio="xMidYMid meet" color-interpolation-filters="sRGB" style="margin: auto;"> <rect data-v-0dd9719b="" x="0" y="0" width="100%" height="100%" fill="#fff" fill-opacity="1" class="background"></rect> <rect data-v-0dd9719b="" x="0" y="0" width="100%" height="100%" fill="url(#watermark)" fill-opacity="1" class="watermarklayer"></rect> <g data-v-0dd9719b="" fill="#009ad5" class="icon-text-wrapper icon-svg-group iconsvg" transform="translate(49.625,94.99819755554199)"><g class="iconsvg-imagesvg" transform="translate(0,0)"><g><rect fill="#009ad5" fill-opacity="0" stroke-width="2" x="0" y="0" width="60" height="60.003600216012956" class="image-rect"></rect> <svg x="0" y="0" width="60" height="60.003600216012956" filtersec="colorsb6623873656" class="image-svg-svg primary" style="overflow: visible;"><svg xmlns="http://www.w3.org/2000/svg" viewBox="-0.0035265907645225525 -0.021566875278949738 302.9096374511719 302.92913818359375"><g><g fill-rule="evenodd"><path d="M295.72 128.56L57 77.85l66.21-66.21a40 40 0 0 1 56.46 0l111.58 111.58a39.78 39.78 0 0 1 4.48 5.34zm-184.4 150.8L87 255l47.65-47.65-121-25.7-2-2a40 40 0 0 1-10.89-36l203.12 43.15-92.56 92.56zm-34.87-34.88l28.06-28.06-71.25-15.13z" fill="#009ad5"></path><path d="M123.75 291.77l115-115-231-49.06a39.81 39.81 0 0 1 3.87-4.49L42.8 92.06l259.88 55.2a39.89 39.89 0 0 1-11.42 32.41L179.67 291.25a40 40 0 0 1-55.92.52z" fill="#55bb9f"></path></g></g></svg></svg> <!----></g></g> <g transform="translate(67,2.9555530548095703)"><g data-gra="path-name" fill-rule="" class="tp-name iconsvg-namesvg" transform="translate(0,0)"><g transform="scale(1)"><g><path d="M6.84-29.97L7.38-34.7 15.12-30.29 14.54-25.52 6.84-29.97ZM20.93-33.88L37.39-33.88Q39.55-33.88 40.57-33.16 41.58-32.45 41.58-30.87L41.58-30.87Q41.58-30.33 41.53-30.02L41.53-30.02 40.95-25.33 36.67-25.33 37.26-29.92 21.06-29.92 20.52-25.38 16.29-25.38 16.88-30.06Q17.1-32.09 18.02-32.98 18.95-33.88 20.93-33.88L20.93-33.88ZM15.97-18.63L16.34-22.68 26.68-26.86 26.37-22.9 15.97-18.63ZM40.99-22.54L40.55-18.59 29.92-22.95 30.29-26.77 40.99-22.54ZM4.59-20.75L5.22-25.47 12.82-20.93 12.29-16.2 4.59-20.75ZM26.05-21.51L30.2-21.51 29.7-17.05 40.68-17.05 40.23-13.05 30.6-13.05Q32.63-9.04 35.19-5.98L35.19-5.98Q37.84-2.75 41.45 0.22L41.45 0.22 37.44 2.02Q32.4-2.48 28.8-9.13L28.8-9.13 27.36 3.6 23.27 3.6 24.61-8.59Q19.89-2.02 14.22 1.75L14.22 1.75 10.35-0.18Q18.31-5.4 23.45-13.05L23.45-13.05 14.94-13.05 15.39-17.05 25.56-17.05 26.05-21.51ZM8.55-12.82L13.05-12.82Q9.67-3.19 6.93 2.83L6.93 2.83 2.25 2.83Q6.39-6.75 8.55-12.82L8.55-12.82ZM61.56-10.53L61.11-6.3Q57.78-5.13 54.09-4.09L54.09-4.09Q51.16-3.24 47.34-2.25L47.34-2.25 47.92-6.52Q51.44-7.42 52.52-7.74L52.52-7.74 54.09-21.87 49.37-21.87 49.81-25.88 54.54-25.88 55.58-35.41 59.76-35.41 58.68-25.88 62.95-25.88 62.5-21.87 58.23-21.87 56.79-9Q59.04-9.63 61.56-10.53L61.56-10.53ZM82.98-35.1L87.16-35.1 82.53 3.38 78.34 3.38 82.98-35.1ZM70.56-34.96L69.21-23.45Q68.04-13.05 66.64-7.29L66.64-7.29Q65.07-0.9 62.5 3.73L62.5 3.73 58.23 2.52Q60.98-2.34 62.5-8.46L62.5-8.46Q63.22-11.34 63.79-14.85 64.35-18.36 64.94-23.45L64.94-23.45 66.19-34.96 70.56-34.96ZM74.38-32.45L78.44-32.45 74.56-0.49 70.52-0.49 74.38-32.45ZM117.41-35.14L115.65-21.91Q117.77-14.49 121.66-8.87 125.55-3.24 131.18 0.94L131.18 0.94 126.41 3.42Q122.44 0.09 119.14-4.43 115.83-8.96 113.67-14.58L113.67-14.58Q111.38-8.78 106.74-3.92L106.74-3.92Q102.56 0.54 97.06 3.6L97.06 3.6 92.7 1.03Q99.99-3.01 104.76-8.82L104.76-8.82Q110.03-15.16 110.84-22.27L110.84-22.27 112.55-35.14 117.41-35.14ZM102.28-29.25L106.29-16.74 101.66-16.74 97.88-29.25 102.28-29.25ZM120.33-16.34L126.22-29.16 130.81-29.16 125.14-16.34 120.33-16.34ZM171.22-15.52L159.03-15.52Q155.84-15.52 155.84-18L155.84-18Q155.84-18.68 156.01-19.35L156.01-19.35 158.18-27.68 162.27-27.68 160.29-19.48 167.99-19.48 170.14-30.2 156.78-30.2 157.23-34.06 170.87-34.06Q172.75-34.06 173.68-33.25 174.6-32.45 174.6-30.96L174.6-30.96Q174.6-30.33 174.47-29.65L174.47-29.65 172.31-19.48Q174.38-19.44 175.19-18.45 176-17.46 176-15.84L176-15.84Q176-14.76 175.63-12.87L175.63-12.87Q175.45-11.65 175.41-11.43L175.41-11.43Q174.69-5.85 174.28-3.38L174.28-3.38 174.15-2.48Q173.84-0.4 173.47 0.77 173.12 1.93 172.22 2.52L172.22 2.52Q171.31 3.19 169.47 3.19L169.47 3.19Q167.89 3.19 164.7 2.52L164.7 2.52Q163.08 2.21 160.6 1.53L160.6 1.53 161.06-2.7Q163.49-2.02 168.39-1.17L168.39-1.17 168.75-1.13Q169.16-1.13 169.34-1.35 169.51-1.57 169.6-2.16L169.6-2.16Q170.64-7.88 171.22-15.52L171.22-15.52ZM153.76-18.45L151.6 0.27 139.54 0.27 141.16-13 137.12-13Q139.91-17.95 141.71-21.69L141.71-21.69Q143.1-24.66 144.99-29.47L144.99-29.47 140.58-29.47 141.03-33.39 155.56-33.39 155.12-29.47 149.26-29.47Q147.69-25.43 146.34-22.5L146.34-22.5 150.88-22.5Q153.85-22.5 153.85-19.62L153.85-19.62Q153.85-19.26 153.76-18.45L153.76-18.45ZM145.49-18.72L143.82-3.46 148.19-3.46 149.9-18.72 145.49-18.72ZM154.71-11.21L168.88-11.21 168.44-7.38 154.22-7.38 154.71-11.21Z" transform="translate(-2.25, 35.40999984741211)"></path></g> <!----> <!----> <!----> <!----> <!----> <!----> <!----></g></g> <g data-gra="path-slogan" fill-rule="" class="tp-slogan iconsvg-slogansvg" fill="#009ad5" transform="translate(30.484176635742188,45.13999938964844)"><!----> <!----> <g transform="scale(1, 1)"><g transform="scale(1)"><path d="M7.17-6.09L7.17-6.09L6.09-6.09Q6-7.73 3.94-7.83L3.94-7.83Q2.02-7.78 2.02-6.33L2.02-6.33Q2.02-5.39 3.05-5.25L3.05-5.25L5.48-4.69Q7.41-4.22 7.41-2.34L7.41-2.34Q7.36 0.05 4.03 0.14L4.03 0.14Q2.20 0.14 1.45-0.61L1.45-0.61Q0.52-1.31 0.56-2.77L0.56-2.77L1.69-2.77Q1.73-0.80 4.03-0.75L4.03-0.75Q6.28-0.80 6.33-2.20L6.33-2.20Q6.52-3.38 4.45-3.75L4.45-3.75L2.67-4.13Q0.84-4.64 0.84-6.19L0.84-6.19Q0.98-8.72 3.84-8.81L3.84-8.81Q7.08-8.81 7.17-6.09ZM10.03-5.06L14.53-5.06L14.53-8.58L15.70-8.58L15.70 0L14.53 0L14.53-3.98L10.03-3.98L10.03 0L8.86 0L8.86-8.58L10.03-8.58L10.03-5.06ZM18.80-1.03L23.95-1.03L23.95 0L17.63 0L17.63-8.58L23.86-8.58L23.86-7.59L18.80-7.59L18.80-4.92L23.48-4.92L23.48-3.89L18.80-3.89L18.80-1.03ZM26.86-8.58L31.17-1.64L31.17-8.58L32.30-8.58L32.30 0L30.98 0L26.63-6.94L26.58-6.94L26.58 0L25.45 0L25.45-8.58L26.86-8.58ZM34.92-1.03L40.22-1.03L40.22 0L33.47 0L33.47-0.94L38.72-7.59L33.84-7.59L33.84-8.58L40.22-8.58L40.22-7.59L34.92-1.03ZM42.52-5.06L47.02-5.06L47.02-8.58L48.19-8.58L48.19 0L47.02 0L47.02-3.98L42.52-3.98L42.52 0L41.34 0L41.34-8.58L42.52-8.58L42.52-5.06ZM51.28-1.03L56.44-1.03L56.44 0L50.11 0L50.11-8.58L56.34-8.58L56.34-7.59L51.28-7.59L51.28-4.92L55.97-4.92L55.97-3.89L51.28-3.89L51.28-1.03ZM59.34-8.58L63.66-1.64L63.66-8.58L64.78-8.58L64.78 0L63.47 0L59.11-6.94L59.06-6.94L59.06 0L57.94 0L57.94-8.58L59.34-8.58ZM71.06-5.06L75.56-5.06L75.56-8.58L76.73-8.58L76.73 0L75.56 0L75.56-3.98L71.06-3.98L71.06 0L69.89 0L69.89-8.58L71.06-8.58L71.06-5.06ZM84.19-3.19L84.19-8.58L85.36-8.58L85.36-3.05Q85.22 0.05 81.84 0.14L81.84 0.14Q78.70 0.05 78.56-2.86L78.56-2.86L78.56-8.58L79.73-8.58L79.73-3.19Q79.78-0.84 81.89-0.80L81.89-0.80Q84.19-0.84 84.19-3.19L84.19-3.19ZM93.94-4.27L93.94-4.27Q93.75-7.64 90.94-7.83L90.94-7.83Q88.08-7.69 87.94-4.27L87.94-4.27Q88.08-0.94 90.94-0.80L90.94-0.80Q93.75-0.98 93.94-4.27ZM95.11-4.27L95.11-4.27Q94.83 0 90.94 0.14L90.94 0.14Q87 0 86.72-4.27L86.72-4.27Q86.95-8.72 90.94-8.81L90.94-8.81Q94.83-8.67 95.11-4.27ZM104.72-8.58L104.72 0L103.59 0L103.59-5.06Q103.59-5.77 103.59-7.22L103.59-7.22L101.16 0L99.98 0L97.59-7.22L97.55-7.22Q97.55-6.70 97.59-5.67L97.59-5.67Q97.59-5.16 97.59-5.06L97.59-5.06L97.59 0L96.42 0L96.42-8.58L98.11-8.58L100.59-1.31L103.03-8.58L104.72-8.58ZM112.08 0L111.23-2.48L107.77-2.48L106.88 0L105.70 0L108.94-8.58L110.25-8.58L113.34 0L112.08 0ZM109.50-7.31L108.14-3.52L110.81-3.52L109.55-7.31L109.50-7.31Z" transform="translate(-0.5602678571428572, 8.8125)"></path></g></g></g></g></g><defs v-gra="od"></defs></svg>